G75*
G70*
%OFA0B0*%
%FSLAX24Y24*%
%IPPOS*%
%LPD*%
%AMOC8*
5,1,8,0,0,1.08239X$1,22.5*
%
%ADD10R,0.0848X0.0848*%
%ADD11C,0.0848*%
%ADD12R,0.0336X0.0198*%
%ADD13R,0.0769X0.1143*%
%ADD14R,0.1182X0.0592*%
%ADD15R,0.0434X0.0395*%
%ADD16R,0.0395X0.0434*%
%ADD17R,0.0380X0.0430*%
%ADD18R,0.0430X0.0380*%
%ADD19R,0.0828X0.1064*%
%ADD20C,0.2620*%
%ADD21C,0.0680*%
%ADD22C,0.0476*%
D10*
X008656Y003250D03*
X022435Y003250D03*
X003695Y017613D03*
X003695Y022455D03*
D11*
X003695Y021455D03*
X003695Y016613D03*
X009656Y003250D03*
X023435Y003250D03*
D12*
X021105Y009550D03*
X021105Y009746D03*
X021105Y009943D03*
X021105Y010140D03*
X021105Y010337D03*
X020042Y010337D03*
X020042Y010140D03*
X020042Y009943D03*
X020042Y009746D03*
X020042Y009550D03*
D13*
X020573Y009943D03*
D14*
X023723Y021754D03*
X023723Y022739D03*
X023723Y023723D03*
X023723Y024707D03*
X023723Y025691D03*
X015849Y025691D03*
X015849Y024707D03*
X015849Y023723D03*
X015849Y022739D03*
X015849Y021754D03*
D15*
X013093Y025317D03*
X013093Y026065D03*
X013880Y025691D03*
D16*
X006006Y015455D03*
X005632Y014668D03*
X006380Y014668D03*
X019806Y012699D03*
X020554Y012699D03*
X020180Y013487D03*
D17*
X021361Y012212D03*
X021361Y011612D03*
X006006Y016730D03*
X006006Y017330D03*
D18*
X018584Y011813D03*
X019184Y011813D03*
D19*
X022109Y007187D03*
X024550Y007187D03*
D20*
X001676Y001676D03*
X001676Y037896D03*
X037896Y037896D03*
X037896Y001676D03*
D21*
X022542Y010731D03*
X022542Y011912D03*
X022542Y013093D03*
X018211Y009943D03*
X018211Y008762D03*
X020967Y007975D03*
X014274Y015455D03*
X012699Y010337D03*
D22*
X007187Y014668D03*
X011912Y025298D03*
X021361Y012699D03*
X019786Y012109D03*
X020573Y009943D03*
X020081Y008959D03*
X025298Y007581D03*
X025298Y006794D03*
M02*
