G75*
G70*
%OFA0B0*%
%FSLAX24Y24*%
%IPPOS*%
%LPD*%
%AMOC8*
5,1,8,0,0,1.08239X$1,22.5*
%
%ADD10R,0.0768X0.0768*%
%ADD11C,0.0768*%
%ADD12C,0.2540*%
%ADD13C,0.0600*%
%ADD14C,0.0160*%
%ADD15C,0.0396*%
D10*
X008656Y003250D03*
X022435Y003250D03*
X003695Y017613D03*
X003695Y022455D03*
D11*
X003695Y021455D03*
X003695Y016613D03*
X009656Y003250D03*
X023435Y003250D03*
D12*
X001676Y001676D03*
X001676Y037896D03*
X037896Y037896D03*
X037896Y001676D03*
D13*
X022542Y010731D03*
X022542Y011912D03*
X022542Y013093D03*
X018211Y009943D03*
X018211Y008762D03*
X020967Y007975D03*
X014274Y015455D03*
X012699Y010337D03*
D14*
X012534Y010723D02*
X000581Y010723D01*
X000581Y010565D02*
X012339Y010565D01*
X012343Y010575D02*
X012279Y010421D01*
X012279Y010253D01*
X012343Y010099D01*
X012461Y009981D01*
X012616Y009917D01*
X012783Y009917D01*
X012937Y009981D01*
X013055Y010099D01*
X013119Y010253D01*
X013119Y010421D01*
X013055Y010575D01*
X012937Y010693D01*
X012783Y010757D01*
X012616Y010757D01*
X012461Y010693D01*
X012343Y010575D01*
X012279Y010406D02*
X000581Y010406D01*
X000581Y010248D02*
X012282Y010248D01*
X012353Y010089D02*
X000581Y010089D01*
X000581Y009930D02*
X012583Y009930D01*
X012815Y009930D02*
X017791Y009930D01*
X017791Y009860D02*
X017791Y010027D01*
X017855Y010181D01*
X017973Y010299D01*
X018127Y010363D01*
X018295Y010363D01*
X018449Y010299D01*
X018567Y010181D01*
X018631Y010027D01*
X018631Y009860D01*
X018567Y009705D01*
X018449Y009587D01*
X018295Y009523D01*
X018127Y009523D01*
X017973Y009587D01*
X017855Y009705D01*
X017791Y009860D01*
X017827Y009772D02*
X000581Y009772D01*
X000581Y009613D02*
X017947Y009613D01*
X018127Y009182D02*
X017973Y009118D01*
X017855Y009000D01*
X017791Y008846D01*
X017791Y008679D01*
X017855Y008524D01*
X017973Y008406D01*
X018127Y008342D01*
X018295Y008342D01*
X018449Y008406D01*
X018567Y008524D01*
X018631Y008679D01*
X018631Y008846D01*
X018567Y009000D01*
X018449Y009118D01*
X018295Y009182D01*
X018127Y009182D01*
X018020Y009138D02*
X000581Y009138D01*
X000581Y009296D02*
X038991Y009296D01*
X038991Y009138D02*
X018402Y009138D01*
X018576Y008979D02*
X038991Y008979D01*
X038991Y008821D02*
X018631Y008821D01*
X018624Y008662D02*
X038991Y008662D01*
X038991Y008504D02*
X018546Y008504D01*
X018301Y008345D02*
X020763Y008345D01*
X020729Y008331D02*
X020611Y008213D01*
X020547Y008058D01*
X020547Y007891D01*
X020611Y007737D01*
X020729Y007619D01*
X020883Y007555D01*
X021050Y007555D01*
X021205Y007619D01*
X021323Y007737D01*
X021387Y007891D01*
X021387Y008058D01*
X021323Y008213D01*
X021205Y008331D01*
X021050Y008395D01*
X020883Y008395D01*
X020729Y008331D01*
X020600Y008186D02*
X000581Y008186D01*
X000581Y008028D02*
X020547Y008028D01*
X020556Y007869D02*
X000581Y007869D01*
X000581Y007711D02*
X020637Y007711D01*
X021297Y007711D02*
X038991Y007711D01*
X038991Y007869D02*
X021378Y007869D01*
X021387Y008028D02*
X038991Y008028D01*
X038991Y008186D02*
X021334Y008186D01*
X021171Y008345D02*
X038991Y008345D01*
X038991Y007552D02*
X000581Y007552D01*
X000581Y007394D02*
X038991Y007394D01*
X038991Y007235D02*
X000581Y007235D01*
X000581Y007077D02*
X038991Y007077D01*
X038991Y006918D02*
X000581Y006918D01*
X000581Y006760D02*
X038991Y006760D01*
X038991Y006601D02*
X000581Y006601D01*
X000581Y006443D02*
X038991Y006443D01*
X038991Y006284D02*
X000581Y006284D01*
X000581Y006125D02*
X038991Y006125D01*
X038991Y005967D02*
X000581Y005967D01*
X000581Y005808D02*
X038991Y005808D01*
X038991Y005650D02*
X000581Y005650D01*
X000581Y005491D02*
X038991Y005491D01*
X038991Y005333D02*
X000581Y005333D01*
X000581Y005174D02*
X038991Y005174D01*
X038991Y005016D02*
X000581Y005016D01*
X000581Y004857D02*
X038991Y004857D01*
X038991Y004699D02*
X000581Y004699D01*
X000581Y004540D02*
X038991Y004540D01*
X038991Y004381D02*
X000581Y004381D01*
X000581Y004223D02*
X038991Y004223D01*
X038991Y004064D02*
X000581Y004064D01*
X000581Y003906D02*
X038991Y003906D01*
X038991Y003747D02*
X023709Y003747D01*
X023755Y003728D02*
X023548Y003814D01*
X023483Y003814D01*
X023483Y003299D01*
X023387Y003299D01*
X023387Y003814D01*
X023323Y003814D01*
X023116Y003728D01*
X022957Y003570D01*
X022939Y003526D01*
X022939Y003684D01*
X022869Y003754D01*
X022002Y003754D01*
X021932Y003684D01*
X021932Y002817D01*
X022002Y002747D01*
X022869Y002747D01*
X022939Y002817D01*
X022939Y002975D01*
X022957Y002931D01*
X023116Y002772D01*
X023323Y002687D01*
X023387Y002687D01*
X023387Y003202D01*
X023483Y003202D01*
X023483Y002687D01*
X023548Y002687D01*
X023755Y002772D01*
X023913Y002931D01*
X023999Y003138D01*
X023999Y003202D01*
X023484Y003202D01*
X023484Y003298D01*
X023999Y003298D01*
X023999Y003363D01*
X023913Y003570D01*
X023755Y003728D01*
X023894Y003589D02*
X038991Y003589D01*
X038991Y003430D02*
X023971Y003430D01*
X023989Y003113D02*
X037659Y003113D01*
X037705Y003126D02*
X037336Y003027D01*
X037006Y002836D01*
X036736Y002566D01*
X036545Y002235D01*
X036446Y001866D01*
X036446Y001756D01*
X037816Y001756D01*
X037816Y003126D01*
X037705Y003126D01*
X037816Y003113D02*
X037976Y003113D01*
X037976Y003126D02*
X037976Y001756D01*
X037816Y001756D01*
X037816Y001596D01*
X036446Y001596D01*
X036446Y001485D01*
X036545Y001116D01*
X036736Y000785D01*
X036940Y000581D01*
X002631Y000581D01*
X002836Y000785D01*
X003027Y001116D01*
X003126Y001485D01*
X003126Y001596D01*
X001756Y001596D01*
X001756Y001756D01*
X001596Y001756D01*
X001596Y003126D01*
X001485Y003126D01*
X001116Y003027D01*
X000785Y002836D01*
X000581Y002631D01*
X000581Y036940D01*
X000785Y036736D01*
X001116Y036545D01*
X001485Y036446D01*
X001596Y036446D01*
X001596Y037816D01*
X001756Y037816D01*
X001756Y037976D01*
X003126Y037976D01*
X003126Y038087D01*
X003027Y038456D01*
X002836Y038786D01*
X002631Y038991D01*
X036940Y038991D01*
X036736Y038786D01*
X036545Y038456D01*
X036446Y038087D01*
X036446Y037976D01*
X037816Y037976D01*
X037816Y037816D01*
X037976Y037816D01*
X037976Y036446D01*
X038087Y036446D01*
X038456Y036545D01*
X038786Y036736D01*
X038991Y036940D01*
X038991Y002631D01*
X038786Y002836D01*
X038456Y003027D01*
X038087Y003126D01*
X037976Y003126D01*
X038133Y003113D02*
X038991Y003113D01*
X038991Y002955D02*
X038581Y002955D01*
X038826Y002796D02*
X038991Y002796D01*
X038985Y002637D02*
X038991Y002637D01*
X038991Y003272D02*
X023484Y003272D01*
X023483Y003430D02*
X023387Y003430D01*
X023387Y003589D02*
X023483Y003589D01*
X023483Y003747D02*
X023387Y003747D01*
X023162Y003747D02*
X022876Y003747D01*
X022939Y003589D02*
X022976Y003589D01*
X023387Y003113D02*
X023483Y003113D01*
X023483Y002955D02*
X023387Y002955D01*
X023387Y002796D02*
X023483Y002796D01*
X023778Y002796D02*
X036966Y002796D01*
X036807Y002637D02*
X002764Y002637D01*
X002836Y002566D02*
X002566Y002836D01*
X002235Y003027D01*
X001866Y003126D01*
X001756Y003126D01*
X001756Y001756D01*
X003126Y001756D01*
X003126Y001866D01*
X003027Y002235D01*
X002836Y002566D01*
X002886Y002479D02*
X036686Y002479D01*
X036594Y002320D02*
X002978Y002320D01*
X003046Y002162D02*
X036525Y002162D01*
X036483Y002003D02*
X003089Y002003D01*
X003126Y001845D02*
X036446Y001845D01*
X036446Y001528D02*
X003126Y001528D01*
X003095Y001369D02*
X036477Y001369D01*
X036519Y001211D02*
X003052Y001211D01*
X002990Y001052D02*
X036582Y001052D01*
X036673Y000894D02*
X002898Y000894D01*
X002786Y000735D02*
X036786Y000735D01*
X037816Y001686D02*
X001756Y001686D01*
X001756Y001845D02*
X001596Y001845D01*
X001596Y002003D02*
X001756Y002003D01*
X001756Y002162D02*
X001596Y002162D01*
X001596Y002320D02*
X001756Y002320D01*
X001756Y002479D02*
X001596Y002479D01*
X001596Y002637D02*
X001756Y002637D01*
X001756Y002796D02*
X001596Y002796D01*
X001596Y002955D02*
X001756Y002955D01*
X001756Y003113D02*
X001596Y003113D01*
X001438Y003113D02*
X000581Y003113D01*
X000581Y002955D02*
X000991Y002955D01*
X000745Y002796D02*
X000581Y002796D01*
X000581Y002637D02*
X000587Y002637D01*
X000581Y003272D02*
X008152Y003272D01*
X008152Y003430D02*
X000581Y003430D01*
X000581Y003589D02*
X008152Y003589D01*
X008152Y003684D02*
X008152Y002817D01*
X008222Y002747D01*
X009089Y002747D01*
X009160Y002817D01*
X009160Y002975D01*
X009178Y002931D01*
X009336Y002772D01*
X009544Y002687D01*
X009608Y002687D01*
X009608Y003202D01*
X009704Y003202D01*
X009704Y002687D01*
X009768Y002687D01*
X009975Y002772D01*
X010134Y002931D01*
X010220Y003138D01*
X010220Y003202D01*
X009704Y003202D01*
X009704Y003298D01*
X010220Y003298D01*
X010220Y003363D01*
X010134Y003570D01*
X009975Y003728D01*
X009768Y003814D01*
X009704Y003814D01*
X009704Y003299D01*
X009608Y003299D01*
X009608Y003814D01*
X009544Y003814D01*
X009336Y003728D01*
X009178Y003570D01*
X009160Y003526D01*
X009160Y003684D01*
X009089Y003754D01*
X008222Y003754D01*
X008152Y003684D01*
X008215Y003747D02*
X000581Y003747D01*
X001913Y003113D02*
X008152Y003113D01*
X008152Y002955D02*
X002360Y002955D01*
X002606Y002796D02*
X008173Y002796D01*
X009096Y003747D02*
X009382Y003747D01*
X009608Y003747D02*
X009704Y003747D01*
X009704Y003589D02*
X009608Y003589D01*
X009608Y003430D02*
X009704Y003430D01*
X009704Y003272D02*
X021932Y003272D01*
X021932Y003430D02*
X010192Y003430D01*
X010115Y003589D02*
X021932Y003589D01*
X021995Y003747D02*
X009930Y003747D01*
X009704Y003113D02*
X009608Y003113D01*
X009608Y002955D02*
X009704Y002955D01*
X009704Y002796D02*
X009608Y002796D01*
X009313Y002796D02*
X009139Y002796D01*
X009160Y002955D02*
X009168Y002955D01*
X009160Y003589D02*
X009197Y003589D01*
X010209Y003113D02*
X021932Y003113D01*
X021932Y002955D02*
X010144Y002955D01*
X009999Y002796D02*
X021952Y002796D01*
X022918Y002796D02*
X023092Y002796D01*
X022948Y002955D02*
X022939Y002955D01*
X023923Y002955D02*
X037211Y002955D01*
X037816Y002955D02*
X037976Y002955D01*
X037976Y002796D02*
X037816Y002796D01*
X037816Y002637D02*
X037976Y002637D01*
X037976Y002479D02*
X037816Y002479D01*
X037816Y002320D02*
X037976Y002320D01*
X037976Y002162D02*
X037816Y002162D01*
X037816Y002003D02*
X037976Y002003D01*
X037976Y001845D02*
X037816Y001845D01*
X038991Y009455D02*
X000581Y009455D01*
X000581Y008979D02*
X017846Y008979D01*
X017791Y008821D02*
X000581Y008821D01*
X000581Y008662D02*
X017798Y008662D01*
X017876Y008504D02*
X000581Y008504D01*
X000581Y008345D02*
X018121Y008345D01*
X018475Y009613D02*
X038991Y009613D01*
X038991Y009772D02*
X018595Y009772D01*
X018631Y009930D02*
X038991Y009930D01*
X038991Y010089D02*
X018605Y010089D01*
X018501Y010248D02*
X038991Y010248D01*
X038991Y010406D02*
X022811Y010406D01*
X022780Y010375D02*
X022898Y010493D01*
X022962Y010647D01*
X022962Y010814D01*
X022898Y010969D01*
X022780Y011087D01*
X022625Y011151D01*
X022458Y011151D01*
X022304Y011087D01*
X022186Y010969D01*
X022122Y010814D01*
X022122Y010647D01*
X022186Y010493D01*
X022304Y010375D01*
X022458Y010311D01*
X022625Y010311D01*
X022780Y010375D01*
X022928Y010565D02*
X038991Y010565D01*
X038991Y010723D02*
X022962Y010723D01*
X022934Y010882D02*
X038991Y010882D01*
X038991Y011040D02*
X022826Y011040D01*
X022257Y011040D02*
X000581Y011040D01*
X000581Y010882D02*
X022150Y010882D01*
X022122Y010723D02*
X012864Y010723D01*
X013059Y010565D02*
X022156Y010565D01*
X022272Y010406D02*
X013119Y010406D01*
X013117Y010248D02*
X017921Y010248D01*
X017817Y010089D02*
X013045Y010089D01*
X014190Y015035D02*
X014358Y015035D01*
X014512Y015099D01*
X014630Y015217D01*
X014694Y015372D01*
X014694Y015539D01*
X014630Y015693D01*
X014512Y015811D01*
X014358Y015875D01*
X014190Y015875D01*
X014036Y015811D01*
X013918Y015693D01*
X013854Y015539D01*
X013854Y015372D01*
X013918Y015217D01*
X014036Y015099D01*
X014190Y015035D01*
X013973Y015162D02*
X000581Y015162D01*
X000581Y015004D02*
X038991Y015004D01*
X038991Y015162D02*
X014575Y015162D01*
X014673Y015321D02*
X038991Y015321D01*
X038991Y015479D02*
X014694Y015479D01*
X014653Y015638D02*
X038991Y015638D01*
X038991Y015797D02*
X014526Y015797D01*
X014022Y015797D02*
X000581Y015797D01*
X000581Y015955D02*
X038991Y015955D01*
X038991Y016114D02*
X003807Y016114D01*
X003795Y016109D02*
X003981Y016185D01*
X004122Y016327D01*
X004199Y016512D01*
X004199Y016713D01*
X004122Y016898D01*
X003981Y017040D01*
X003814Y017109D01*
X004129Y017109D01*
X004199Y017179D01*
X004199Y018046D01*
X004129Y018116D01*
X003262Y018116D01*
X003191Y018046D01*
X003191Y017179D01*
X003262Y017109D01*
X003577Y017109D01*
X003410Y017040D01*
X003268Y016898D01*
X003191Y016713D01*
X003191Y016512D01*
X003268Y016327D01*
X003410Y016185D01*
X003595Y016109D01*
X003795Y016109D01*
X003583Y016114D02*
X000581Y016114D01*
X000581Y016272D02*
X003323Y016272D01*
X003225Y016431D02*
X000581Y016431D01*
X000581Y016589D02*
X003191Y016589D01*
X003206Y016748D02*
X000581Y016748D01*
X000581Y016906D02*
X003276Y016906D01*
X003471Y017065D02*
X000581Y017065D01*
X000581Y017223D02*
X003191Y017223D01*
X003191Y017382D02*
X000581Y017382D01*
X000581Y017541D02*
X003191Y017541D01*
X003191Y017699D02*
X000581Y017699D01*
X000581Y017858D02*
X003191Y017858D01*
X003191Y018016D02*
X000581Y018016D01*
X000581Y018175D02*
X038991Y018175D01*
X038991Y018333D02*
X000581Y018333D01*
X000581Y018492D02*
X038991Y018492D01*
X038991Y018650D02*
X000581Y018650D01*
X000581Y018809D02*
X038991Y018809D01*
X038991Y018967D02*
X000581Y018967D01*
X000581Y019126D02*
X038991Y019126D01*
X038991Y019285D02*
X000581Y019285D01*
X000581Y019443D02*
X038991Y019443D01*
X038991Y019602D02*
X000581Y019602D01*
X000581Y019760D02*
X038991Y019760D01*
X038991Y019919D02*
X000581Y019919D01*
X000581Y020077D02*
X038991Y020077D01*
X038991Y020236D02*
X000581Y020236D01*
X000581Y020394D02*
X038991Y020394D01*
X038991Y020553D02*
X000581Y020553D01*
X000581Y020711D02*
X038991Y020711D01*
X038991Y020870D02*
X000581Y020870D01*
X000581Y021029D02*
X003409Y021029D01*
X003410Y021028D02*
X003595Y020951D01*
X003795Y020951D01*
X003981Y021028D01*
X004122Y021170D01*
X004199Y021355D01*
X004199Y021555D01*
X004122Y021741D01*
X003981Y021882D01*
X003814Y021951D01*
X004129Y021951D01*
X004199Y022022D01*
X004199Y022889D01*
X004129Y022959D01*
X003262Y022959D01*
X003191Y022889D01*
X003191Y022022D01*
X003262Y021951D01*
X003577Y021951D01*
X003410Y021882D01*
X003268Y021741D01*
X003191Y021555D01*
X003191Y021355D01*
X003268Y021170D01*
X003410Y021028D01*
X003261Y021187D02*
X000581Y021187D01*
X000581Y021346D02*
X003195Y021346D01*
X003191Y021504D02*
X000581Y021504D01*
X000581Y021663D02*
X003236Y021663D01*
X003349Y021821D02*
X000581Y021821D01*
X000581Y021980D02*
X003233Y021980D01*
X003191Y022138D02*
X000581Y022138D01*
X000581Y022297D02*
X003191Y022297D01*
X003191Y022455D02*
X000581Y022455D01*
X000581Y022614D02*
X003191Y022614D01*
X003191Y022772D02*
X000581Y022772D01*
X000581Y022931D02*
X003234Y022931D01*
X004157Y022931D02*
X038991Y022931D01*
X038991Y022772D02*
X004199Y022772D01*
X004199Y022614D02*
X038991Y022614D01*
X038991Y022455D02*
X004199Y022455D01*
X004199Y022297D02*
X038991Y022297D01*
X038991Y022138D02*
X004199Y022138D01*
X004157Y021980D02*
X038991Y021980D01*
X038991Y021821D02*
X004042Y021821D01*
X004155Y021663D02*
X038991Y021663D01*
X038991Y021504D02*
X004199Y021504D01*
X004195Y021346D02*
X038991Y021346D01*
X038991Y021187D02*
X004130Y021187D01*
X003981Y021029D02*
X038991Y021029D01*
X038991Y023090D02*
X000581Y023090D01*
X000581Y023248D02*
X038991Y023248D01*
X038991Y023407D02*
X000581Y023407D01*
X000581Y023565D02*
X038991Y023565D01*
X038991Y023724D02*
X000581Y023724D01*
X000581Y023882D02*
X038991Y023882D01*
X038991Y024041D02*
X000581Y024041D01*
X000581Y024199D02*
X038991Y024199D01*
X038991Y024358D02*
X000581Y024358D01*
X000581Y024516D02*
X038991Y024516D01*
X038991Y024675D02*
X000581Y024675D01*
X000581Y024834D02*
X038991Y024834D01*
X038991Y024992D02*
X000581Y024992D01*
X000581Y025151D02*
X038991Y025151D01*
X038991Y025309D02*
X000581Y025309D01*
X000581Y025468D02*
X038991Y025468D01*
X038991Y025626D02*
X000581Y025626D01*
X000581Y025785D02*
X038991Y025785D01*
X038991Y025943D02*
X000581Y025943D01*
X000581Y026102D02*
X038991Y026102D01*
X038991Y026260D02*
X000581Y026260D01*
X000581Y026419D02*
X038991Y026419D01*
X038991Y026578D02*
X000581Y026578D01*
X000581Y026736D02*
X038991Y026736D01*
X038991Y026895D02*
X000581Y026895D01*
X000581Y027053D02*
X038991Y027053D01*
X038991Y027212D02*
X000581Y027212D01*
X000581Y027370D02*
X038991Y027370D01*
X038991Y027529D02*
X000581Y027529D01*
X000581Y027687D02*
X038991Y027687D01*
X038991Y027846D02*
X000581Y027846D01*
X000581Y028004D02*
X038991Y028004D01*
X038991Y028163D02*
X000581Y028163D01*
X000581Y028321D02*
X038991Y028321D01*
X038991Y028480D02*
X000581Y028480D01*
X000581Y028639D02*
X038991Y028639D01*
X038991Y028797D02*
X000581Y028797D01*
X000581Y028956D02*
X038991Y028956D01*
X038991Y029114D02*
X000581Y029114D01*
X000581Y029273D02*
X038991Y029273D01*
X038991Y029431D02*
X000581Y029431D01*
X000581Y029590D02*
X038991Y029590D01*
X038991Y029748D02*
X000581Y029748D01*
X000581Y029907D02*
X038991Y029907D01*
X038991Y030065D02*
X000581Y030065D01*
X000581Y030224D02*
X038991Y030224D01*
X038991Y030383D02*
X000581Y030383D01*
X000581Y030541D02*
X038991Y030541D01*
X038991Y030700D02*
X000581Y030700D01*
X000581Y030858D02*
X038991Y030858D01*
X038991Y031017D02*
X000581Y031017D01*
X000581Y031175D02*
X038991Y031175D01*
X038991Y031334D02*
X000581Y031334D01*
X000581Y031492D02*
X038991Y031492D01*
X038991Y031651D02*
X000581Y031651D01*
X000581Y031809D02*
X038991Y031809D01*
X038991Y031968D02*
X000581Y031968D01*
X000581Y032127D02*
X038991Y032127D01*
X038991Y032285D02*
X000581Y032285D01*
X000581Y032444D02*
X038991Y032444D01*
X038991Y032602D02*
X000581Y032602D01*
X000581Y032761D02*
X038991Y032761D01*
X038991Y032919D02*
X000581Y032919D01*
X000581Y033078D02*
X038991Y033078D01*
X038991Y033236D02*
X000581Y033236D01*
X000581Y033395D02*
X038991Y033395D01*
X038991Y033553D02*
X000581Y033553D01*
X000581Y033712D02*
X038991Y033712D01*
X038991Y033871D02*
X000581Y033871D01*
X000581Y034029D02*
X038991Y034029D01*
X038991Y034188D02*
X000581Y034188D01*
X000581Y034346D02*
X038991Y034346D01*
X038991Y034505D02*
X000581Y034505D01*
X000581Y034663D02*
X038991Y034663D01*
X038991Y034822D02*
X000581Y034822D01*
X000581Y034980D02*
X038991Y034980D01*
X038991Y035139D02*
X000581Y035139D01*
X000581Y035297D02*
X038991Y035297D01*
X038991Y035456D02*
X000581Y035456D01*
X000581Y035614D02*
X038991Y035614D01*
X038991Y035773D02*
X000581Y035773D01*
X000581Y035932D02*
X038991Y035932D01*
X038991Y036090D02*
X000581Y036090D01*
X000581Y036249D02*
X038991Y036249D01*
X038991Y036407D02*
X000581Y036407D01*
X000581Y036566D02*
X001080Y036566D01*
X000805Y036724D02*
X000581Y036724D01*
X000581Y036883D02*
X000638Y036883D01*
X001596Y036883D02*
X001756Y036883D01*
X001756Y037041D02*
X001596Y037041D01*
X001596Y037200D02*
X001756Y037200D01*
X001756Y037358D02*
X001596Y037358D01*
X001596Y037517D02*
X001756Y037517D01*
X001756Y037676D02*
X001596Y037676D01*
X001756Y037816D02*
X001756Y036446D01*
X001866Y036446D01*
X002235Y036545D01*
X002566Y036736D01*
X002836Y037006D01*
X003027Y037336D01*
X003126Y037705D01*
X003126Y037816D01*
X001756Y037816D01*
X001756Y037834D02*
X037816Y037834D01*
X037816Y037816D02*
X036446Y037816D01*
X036446Y037705D01*
X036545Y037336D01*
X036736Y037006D01*
X037006Y036736D01*
X037336Y036545D01*
X037705Y036446D01*
X037816Y036446D01*
X037816Y037816D01*
X037816Y037676D02*
X037976Y037676D01*
X037976Y037517D02*
X037816Y037517D01*
X037816Y037358D02*
X037976Y037358D01*
X037976Y037200D02*
X037816Y037200D01*
X037816Y037041D02*
X037976Y037041D01*
X037976Y036883D02*
X037816Y036883D01*
X037816Y036724D02*
X037976Y036724D01*
X037976Y036566D02*
X037816Y036566D01*
X037300Y036566D02*
X002271Y036566D01*
X002546Y036724D02*
X037026Y036724D01*
X036859Y036883D02*
X002713Y036883D01*
X002856Y037041D02*
X036715Y037041D01*
X036624Y037200D02*
X002948Y037200D01*
X003033Y037358D02*
X036539Y037358D01*
X036496Y037517D02*
X003075Y037517D01*
X003118Y037676D02*
X036454Y037676D01*
X036446Y037993D02*
X003126Y037993D01*
X003108Y038151D02*
X036463Y038151D01*
X036506Y038310D02*
X003066Y038310D01*
X003019Y038468D02*
X036552Y038468D01*
X036644Y038627D02*
X002928Y038627D01*
X002836Y038785D02*
X036735Y038785D01*
X036893Y038944D02*
X002678Y038944D01*
X001756Y036724D02*
X001596Y036724D01*
X001596Y036566D02*
X001756Y036566D01*
X004199Y018016D02*
X038991Y018016D01*
X038991Y017858D02*
X004199Y017858D01*
X004199Y017699D02*
X038991Y017699D01*
X038991Y017541D02*
X004199Y017541D01*
X004199Y017382D02*
X038991Y017382D01*
X038991Y017223D02*
X004199Y017223D01*
X003920Y017065D02*
X038991Y017065D01*
X038991Y016906D02*
X004114Y016906D01*
X004185Y016748D02*
X038991Y016748D01*
X038991Y016589D02*
X004199Y016589D01*
X004165Y016431D02*
X038991Y016431D01*
X038991Y016272D02*
X004067Y016272D01*
X000581Y015638D02*
X013895Y015638D01*
X013854Y015479D02*
X000581Y015479D01*
X000581Y015321D02*
X013875Y015321D01*
X022062Y013188D02*
X022062Y013113D01*
X022521Y013113D01*
X022521Y013073D01*
X022062Y013073D01*
X022062Y012997D01*
X022135Y012821D01*
X022270Y012686D01*
X022446Y012613D01*
X022522Y012613D01*
X022522Y013073D01*
X022562Y013073D01*
X022562Y013113D01*
X023022Y013113D01*
X023022Y013188D01*
X022949Y013365D01*
X022814Y013500D01*
X022637Y013573D01*
X022562Y013573D01*
X022562Y013113D01*
X022522Y013113D01*
X022522Y013573D01*
X022446Y013573D01*
X022270Y013500D01*
X022135Y013365D01*
X022062Y013188D01*
X022091Y013260D02*
X000581Y013260D01*
X000581Y013418D02*
X022188Y013418D01*
X022522Y013418D02*
X022562Y013418D01*
X022562Y013260D02*
X022522Y013260D01*
X022521Y013101D02*
X000581Y013101D01*
X000581Y012943D02*
X022084Y012943D01*
X022172Y012784D02*
X000581Y012784D01*
X000581Y012626D02*
X022415Y012626D01*
X022522Y012626D02*
X022562Y012626D01*
X022562Y012613D02*
X022637Y012613D01*
X022814Y012686D01*
X022949Y012821D01*
X023022Y012997D01*
X023022Y013073D01*
X022562Y013073D01*
X022562Y012613D01*
X022668Y012626D02*
X038991Y012626D01*
X038991Y012784D02*
X022912Y012784D01*
X022999Y012943D02*
X038991Y012943D01*
X038991Y013101D02*
X022562Y013101D01*
X022562Y012943D02*
X022522Y012943D01*
X022522Y012784D02*
X022562Y012784D01*
X022625Y012332D02*
X022458Y012332D01*
X022304Y012268D01*
X022186Y012150D01*
X000581Y012150D01*
X000581Y011992D02*
X022122Y011992D01*
X022122Y011995D02*
X022122Y011828D01*
X022186Y011674D01*
X022304Y011556D01*
X022458Y011492D01*
X022625Y011492D01*
X022780Y011556D01*
X022898Y011674D01*
X022962Y011828D01*
X022962Y011995D01*
X022898Y012150D01*
X022780Y012268D01*
X022625Y012332D01*
X022681Y012309D02*
X038991Y012309D01*
X038991Y012467D02*
X000581Y012467D01*
X000581Y012309D02*
X022402Y012309D01*
X022186Y012150D02*
X022122Y011995D01*
X022122Y011833D02*
X000581Y011833D01*
X000581Y011674D02*
X022185Y011674D01*
X022400Y011516D02*
X000581Y011516D01*
X000581Y011357D02*
X038991Y011357D01*
X038991Y011199D02*
X000581Y011199D01*
X000581Y013577D02*
X038991Y013577D01*
X038991Y013736D02*
X000581Y013736D01*
X000581Y013894D02*
X038991Y013894D01*
X038991Y014053D02*
X000581Y014053D01*
X000581Y014211D02*
X038991Y014211D01*
X038991Y014370D02*
X000581Y014370D01*
X000581Y014528D02*
X038991Y014528D01*
X038991Y014687D02*
X000581Y014687D01*
X000581Y014845D02*
X038991Y014845D01*
X038991Y013418D02*
X022895Y013418D01*
X022992Y013260D02*
X038991Y013260D01*
X038991Y012150D02*
X022897Y012150D01*
X022962Y011992D02*
X038991Y011992D01*
X038991Y011833D02*
X022962Y011833D01*
X022898Y011674D02*
X038991Y011674D01*
X038991Y011516D02*
X022683Y011516D01*
X038492Y036566D02*
X038991Y036566D01*
X038991Y036724D02*
X038766Y036724D01*
X038933Y036883D02*
X038991Y036883D01*
D15*
X021361Y012699D03*
X019786Y012109D03*
X020573Y009943D03*
X020081Y008959D03*
X025298Y007581D03*
X025298Y006794D03*
X007187Y014668D03*
X011912Y025298D03*
M02*
