G75*
%MOIN*%
%OFA0B0*%
%FSLAX25Y25*%
%IPPOS*%
%LPD*%
%AMOC8*
5,1,8,0,0,1.08239X$1,22.5*
%
%ADD10C,0.00600*%
%ADD11C,0.00500*%
%ADD12C,0.05906*%
%ADD13C,0.00400*%
%ADD14R,0.10236X0.18110*%
D10*
X0049241Y0011116D02*
X0050309Y0010048D01*
X0052444Y0010048D01*
X0053511Y0011116D01*
X0053511Y0015386D01*
X0052444Y0016453D01*
X0050309Y0016453D01*
X0049241Y0015386D01*
X0049241Y0011116D01*
X0055687Y0010048D02*
X0055687Y0016453D01*
X0059957Y0010048D01*
X0059957Y0016453D01*
X0066402Y0016453D02*
X0062132Y0010048D01*
X0068578Y0011116D02*
X0069645Y0010048D01*
X0071780Y0010048D01*
X0072848Y0011116D01*
X0072848Y0015386D01*
X0071780Y0016453D01*
X0069645Y0016453D01*
X0068578Y0015386D01*
X0068578Y0011116D01*
X0075023Y0010048D02*
X0075023Y0016453D01*
X0079293Y0016453D01*
X0081469Y0016453D02*
X0085739Y0016453D01*
X0083604Y0013251D02*
X0081469Y0013251D01*
X0081469Y0016453D02*
X0081469Y0010048D01*
X0077158Y0013251D02*
X0075023Y0013251D01*
X0095788Y0014512D02*
X0095788Y0010242D01*
X0096856Y0009174D01*
X0098991Y0009174D01*
X0100059Y0010242D01*
X0100059Y0012377D01*
X0097923Y0012377D01*
X0095788Y0014512D02*
X0096856Y0015579D01*
X0098991Y0015579D01*
X0100059Y0014512D01*
X0102234Y0015579D02*
X0106504Y0009174D01*
X0106504Y0015579D01*
X0108679Y0015579D02*
X0108679Y0009174D01*
X0111882Y0009174D01*
X0112949Y0010242D01*
X0112949Y0014512D01*
X0111882Y0015579D01*
X0108679Y0015579D01*
X0102234Y0015579D02*
X0102234Y0009174D01*
X0088657Y0047796D02*
X0088657Y0052200D01*
X0086455Y0049998D01*
X0089391Y0049998D01*
X0084787Y0052200D02*
X0083319Y0052200D01*
X0084053Y0052200D02*
X0084053Y0048530D01*
X0083319Y0047796D01*
X0082585Y0047796D01*
X0081851Y0048530D01*
X0132752Y0101662D02*
X0132752Y0106066D01*
X0131284Y0106066D02*
X0134220Y0106066D01*
X0135888Y0106066D02*
X0135888Y0101662D01*
X0135888Y0103130D02*
X0138090Y0103130D01*
X0138824Y0103864D01*
X0138824Y0105332D01*
X0138090Y0106066D01*
X0135888Y0106066D01*
X0140492Y0104598D02*
X0141960Y0106066D01*
X0141960Y0101662D01*
X0140492Y0101662D02*
X0143428Y0101662D01*
X0164591Y0101129D02*
X0167526Y0101129D01*
X0166058Y0101129D02*
X0166058Y0096725D01*
X0169194Y0096725D02*
X0169194Y0101129D01*
X0171396Y0101129D01*
X0172130Y0100395D01*
X0172130Y0098927D01*
X0171396Y0098193D01*
X0169194Y0098193D01*
X0173798Y0098193D02*
X0174532Y0098927D01*
X0176000Y0098927D01*
X0176734Y0098193D01*
X0176734Y0097459D01*
X0176000Y0096725D01*
X0174532Y0096725D01*
X0173798Y0097459D01*
X0173798Y0098193D01*
X0174532Y0098927D02*
X0173798Y0099661D01*
X0173798Y0100395D01*
X0174532Y0101129D01*
X0176000Y0101129D01*
X0176734Y0100395D01*
X0176734Y0099661D01*
X0176000Y0098927D01*
X0176000Y0089318D02*
X0174532Y0089318D01*
X0173798Y0088584D01*
X0172130Y0088584D02*
X0172130Y0087116D01*
X0171396Y0086382D01*
X0169194Y0086382D01*
X0169194Y0084914D02*
X0169194Y0089318D01*
X0171396Y0089318D01*
X0172130Y0088584D01*
X0176000Y0089318D02*
X0176734Y0088584D01*
X0176734Y0087850D01*
X0173798Y0084914D01*
X0176734Y0084914D01*
X0167526Y0089318D02*
X0164591Y0089318D01*
X0166058Y0089318D02*
X0166058Y0084914D01*
X0192150Y0081444D02*
X0195085Y0081444D01*
X0193618Y0081444D02*
X0193618Y0077040D01*
X0196754Y0077040D02*
X0196754Y0081444D01*
X0198955Y0081444D01*
X0199689Y0080710D01*
X0199689Y0079242D01*
X0198955Y0078508D01*
X0196754Y0078508D01*
X0201357Y0077774D02*
X0202091Y0077040D01*
X0203559Y0077040D01*
X0204293Y0077774D01*
X0204293Y0078508D01*
X0203559Y0079242D01*
X0202825Y0079242D01*
X0203559Y0079242D02*
X0204293Y0079976D01*
X0204293Y0080710D01*
X0203559Y0081444D01*
X0202091Y0081444D01*
X0201357Y0080710D01*
X0223741Y0082743D02*
X0224475Y0082009D01*
X0225943Y0082009D01*
X0226677Y0082743D01*
X0228345Y0082009D02*
X0231281Y0084945D01*
X0231281Y0085678D01*
X0230547Y0086412D01*
X0229079Y0086412D01*
X0228345Y0085678D01*
X0226677Y0085678D02*
X0225943Y0086412D01*
X0224475Y0086412D01*
X0223741Y0085678D01*
X0223741Y0082743D01*
X0228345Y0082009D02*
X0231281Y0082009D01*
X0231177Y0105599D02*
X0231177Y0110003D01*
X0229709Y0110003D02*
X0232645Y0110003D01*
X0234313Y0110003D02*
X0234313Y0105599D01*
X0234313Y0107067D02*
X0236515Y0107067D01*
X0237249Y0107801D01*
X0237249Y0109269D01*
X0236515Y0110003D01*
X0234313Y0110003D01*
X0238917Y0110003D02*
X0238917Y0107801D01*
X0240385Y0108535D01*
X0241119Y0108535D01*
X0241853Y0107801D01*
X0241853Y0106333D01*
X0241119Y0105599D01*
X0239651Y0105599D01*
X0238917Y0106333D01*
X0238917Y0110003D02*
X0241853Y0110003D01*
X0241119Y0117410D02*
X0241853Y0118144D01*
X0241853Y0118878D01*
X0241119Y0119612D01*
X0238917Y0119612D01*
X0238917Y0118144D01*
X0239651Y0117410D01*
X0241119Y0117410D01*
X0238917Y0119612D02*
X0240385Y0121080D01*
X0241853Y0121814D01*
X0237249Y0121080D02*
X0237249Y0119612D01*
X0236515Y0118878D01*
X0234313Y0118878D01*
X0234313Y0117410D02*
X0234313Y0121814D01*
X0236515Y0121814D01*
X0237249Y0121080D01*
X0232645Y0121814D02*
X0229709Y0121814D01*
X0231177Y0121814D02*
X0231177Y0117410D01*
X0231177Y0129221D02*
X0231177Y0133625D01*
X0229709Y0133625D02*
X0232645Y0133625D01*
X0234313Y0133625D02*
X0234313Y0129221D01*
X0234313Y0130689D02*
X0236515Y0130689D01*
X0237249Y0131423D01*
X0237249Y0132891D01*
X0236515Y0133625D01*
X0234313Y0133625D01*
X0238917Y0133625D02*
X0241853Y0133625D01*
X0241853Y0132891D01*
X0238917Y0129955D01*
X0238917Y0129221D01*
X0207175Y0112003D02*
X0207175Y0107599D01*
X0205707Y0107599D02*
X0208643Y0107599D01*
X0205707Y0110535D02*
X0207175Y0112003D01*
X0204039Y0112003D02*
X0204039Y0108333D01*
X0203305Y0107599D01*
X0201837Y0107599D01*
X0201103Y0108333D01*
X0201103Y0112003D01*
X0192879Y0126300D02*
X0189210Y0126300D01*
X0189210Y0129236D02*
X0192879Y0129236D01*
X0193613Y0128502D01*
X0193613Y0127034D01*
X0192879Y0126300D01*
X0193613Y0130904D02*
X0190678Y0133840D01*
X0189944Y0133840D01*
X0189210Y0133106D01*
X0189210Y0131638D01*
X0189944Y0130904D01*
X0193613Y0130904D02*
X0193613Y0133840D01*
X0158442Y0152843D02*
X0158442Y0157247D01*
X0156240Y0155045D01*
X0159176Y0155045D01*
X0154572Y0155045D02*
X0153838Y0154311D01*
X0151636Y0154311D01*
X0151636Y0152843D02*
X0151636Y0157247D01*
X0153838Y0157247D01*
X0154572Y0156513D01*
X0154572Y0155045D01*
X0149968Y0157247D02*
X0147032Y0157247D01*
X0148500Y0157247D02*
X0148500Y0152843D01*
X0056645Y0221369D02*
X0056645Y0222103D01*
X0055911Y0222837D01*
X0052241Y0222837D01*
X0052241Y0222103D02*
X0052241Y0223571D01*
X0053709Y0225239D02*
X0052241Y0226707D01*
X0056645Y0226707D01*
X0056645Y0225239D02*
X0056645Y0228175D01*
X0056645Y0221369D02*
X0055911Y0220635D01*
X0048460Y0190507D02*
X0046992Y0190507D01*
X0046258Y0189773D01*
X0044590Y0190507D02*
X0043122Y0190507D01*
X0043856Y0190507D02*
X0043856Y0186837D01*
X0043122Y0186103D01*
X0042388Y0186103D01*
X0041654Y0186837D01*
X0046258Y0186837D02*
X0046992Y0186103D01*
X0048460Y0186103D01*
X0049194Y0186837D01*
X0049194Y0187571D01*
X0048460Y0188305D01*
X0047726Y0188305D01*
X0048460Y0188305D02*
X0049194Y0189039D01*
X0049194Y0189773D01*
X0048460Y0190507D01*
X0019516Y0195739D02*
X0013111Y0195739D01*
X0013111Y0191469D01*
X0013111Y0197914D02*
X0013111Y0202184D01*
X0019516Y0202184D01*
X0019516Y0197914D01*
X0016314Y0200049D02*
X0016314Y0202184D01*
X0019516Y0204360D02*
X0013111Y0204360D01*
X0019516Y0208630D01*
X0013111Y0208630D01*
X0013111Y0210805D02*
X0017381Y0210805D01*
X0019516Y0212940D01*
X0017381Y0215075D01*
X0013111Y0215075D01*
X0016314Y0215075D02*
X0016314Y0210805D01*
X0016314Y0217251D02*
X0015246Y0218318D01*
X0015246Y0221521D01*
X0013111Y0221521D02*
X0019516Y0221521D01*
X0019516Y0218318D01*
X0018449Y0217251D01*
X0016314Y0217251D01*
X0013111Y0230142D02*
X0013111Y0234412D01*
X0019516Y0234412D01*
X0019516Y0236587D02*
X0019516Y0240857D01*
X0013111Y0240857D01*
X0013111Y0236587D01*
X0016314Y0238722D02*
X0016314Y0240857D01*
X0017381Y0181802D02*
X0016314Y0180735D01*
X0016314Y0178600D01*
X0015246Y0177532D01*
X0014179Y0177532D01*
X0013111Y0178600D01*
X0013111Y0180735D01*
X0014179Y0181802D01*
X0017381Y0181802D02*
X0018449Y0181802D01*
X0019516Y0180735D01*
X0019516Y0178600D01*
X0018449Y0177532D01*
X0019516Y0175357D02*
X0019516Y0172154D01*
X0018449Y0171087D01*
X0016314Y0171087D01*
X0015246Y0172154D01*
X0015246Y0175357D01*
X0013111Y0175357D02*
X0019516Y0175357D01*
X0019516Y0168911D02*
X0013111Y0168911D01*
X0015246Y0168911D02*
X0019516Y0164641D01*
X0019516Y0162466D02*
X0019516Y0159263D01*
X0018449Y0158196D01*
X0016314Y0158196D01*
X0015246Y0159263D01*
X0015246Y0162466D01*
X0013111Y0162466D02*
X0019516Y0162466D01*
X0015246Y0160331D02*
X0013111Y0158196D01*
X0013111Y0164641D02*
X0016314Y0167844D01*
X0047477Y0152791D02*
X0047477Y0151323D01*
X0048211Y0150589D01*
X0048211Y0148921D02*
X0047477Y0148187D01*
X0047477Y0146719D01*
X0048211Y0145985D01*
X0051147Y0145985D01*
X0051881Y0146719D01*
X0051881Y0148187D01*
X0051147Y0148921D01*
X0048211Y0148921D01*
X0050413Y0147453D02*
X0051881Y0148921D01*
X0051881Y0150589D02*
X0048945Y0153525D01*
X0048211Y0153525D01*
X0047477Y0152791D01*
X0051881Y0153525D02*
X0051881Y0150589D01*
X0130971Y0265080D02*
X0130237Y0265813D01*
X0130237Y0268749D01*
X0130971Y0269483D01*
X0132439Y0269483D01*
X0133173Y0268749D01*
X0133173Y0265813D01*
X0132439Y0265080D01*
X0130971Y0265080D01*
X0131705Y0266547D02*
X0133173Y0265080D01*
X0134841Y0265080D02*
X0137777Y0265080D01*
X0136309Y0265080D02*
X0136309Y0269483D01*
X0134841Y0268015D01*
X0188308Y0278342D02*
X0191244Y0278342D01*
X0189776Y0278342D02*
X0189776Y0273938D01*
X0192912Y0273938D02*
X0195848Y0273938D01*
X0194380Y0273938D02*
X0194380Y0278342D01*
X0192912Y0276874D01*
X0192841Y0324135D02*
X0191774Y0325202D01*
X0191774Y0326270D01*
X0192841Y0327337D01*
X0194976Y0327337D01*
X0196044Y0326270D01*
X0196044Y0325202D01*
X0194976Y0324135D01*
X0192841Y0324135D01*
X0192841Y0327337D02*
X0191774Y0328405D01*
X0191774Y0329473D01*
X0192841Y0330540D01*
X0194976Y0330540D01*
X0196044Y0329473D01*
X0196044Y0328405D01*
X0194976Y0327337D01*
X0189598Y0324135D02*
X0185328Y0324135D01*
X0187463Y0324135D02*
X0187463Y0330540D01*
X0185328Y0328405D01*
X0183153Y0329473D02*
X0183153Y0325202D01*
X0182085Y0324135D01*
X0179950Y0324135D01*
X0178883Y0325202D01*
X0183153Y0329473D01*
X0182085Y0330540D01*
X0179950Y0330540D01*
X0178883Y0329473D01*
X0178883Y0325202D01*
X0176707Y0324135D02*
X0172437Y0324135D01*
X0176707Y0328405D01*
X0176707Y0329473D01*
X0175640Y0330540D01*
X0173505Y0330540D01*
X0172437Y0329473D01*
X0170262Y0327337D02*
X0165992Y0327337D01*
X0163816Y0324135D02*
X0159546Y0330540D01*
X0159546Y0324135D01*
X0157371Y0325202D02*
X0157371Y0330540D01*
X0153101Y0330540D02*
X0153101Y0325202D01*
X0154168Y0324135D01*
X0156303Y0324135D01*
X0157371Y0325202D01*
X0150925Y0330540D02*
X0148790Y0330540D01*
X0149858Y0330540D02*
X0149858Y0325202D01*
X0148790Y0324135D01*
X0147723Y0324135D01*
X0146655Y0325202D01*
X0148068Y0335946D02*
X0143798Y0335946D01*
X0143798Y0342351D01*
X0141623Y0341284D02*
X0141623Y0339148D01*
X0140555Y0338081D01*
X0137353Y0338081D01*
X0139488Y0338081D02*
X0141623Y0335946D01*
X0137353Y0335946D02*
X0137353Y0342351D01*
X0140555Y0342351D01*
X0141623Y0341284D01*
X0135177Y0342351D02*
X0130907Y0342351D01*
X0130907Y0335946D01*
X0135177Y0335946D01*
X0133042Y0339148D02*
X0130907Y0339148D01*
X0128732Y0342351D02*
X0124462Y0342351D01*
X0126597Y0342351D02*
X0126597Y0335946D01*
X0122286Y0335946D02*
X0122286Y0340216D01*
X0120151Y0342351D01*
X0118016Y0340216D01*
X0118016Y0335946D01*
X0115841Y0335946D02*
X0115841Y0342351D01*
X0118016Y0339148D02*
X0122286Y0339148D01*
X0115841Y0335946D02*
X0113706Y0338081D01*
X0111571Y0335946D01*
X0111571Y0342351D01*
X0109395Y0342351D02*
X0109395Y0337013D01*
X0108328Y0335946D01*
X0106193Y0335946D01*
X0105125Y0337013D01*
X0105125Y0342351D01*
X0105807Y0347757D02*
X0105807Y0352027D01*
X0103672Y0354162D01*
X0101537Y0352027D01*
X0101537Y0347757D01*
X0099361Y0347757D02*
X0099361Y0354162D01*
X0101537Y0350959D02*
X0105807Y0350959D01*
X0107982Y0349892D02*
X0111185Y0349892D01*
X0112252Y0350959D01*
X0112252Y0353095D01*
X0111185Y0354162D01*
X0107982Y0354162D01*
X0107982Y0347757D01*
X0110117Y0349892D02*
X0112252Y0347757D01*
X0114428Y0347757D02*
X0114428Y0354162D01*
X0118698Y0347757D01*
X0118698Y0354162D01*
X0120873Y0354162D02*
X0123008Y0354162D01*
X0121941Y0354162D02*
X0121941Y0347757D01*
X0123008Y0347757D02*
X0120873Y0347757D01*
X0125170Y0347757D02*
X0125170Y0354162D01*
X0129440Y0347757D01*
X0129440Y0354162D01*
X0131616Y0353095D02*
X0131616Y0348824D01*
X0132683Y0347757D01*
X0134818Y0347757D01*
X0135886Y0348824D01*
X0135886Y0350959D01*
X0133751Y0350959D01*
X0135886Y0353095D02*
X0134818Y0354162D01*
X0132683Y0354162D01*
X0131616Y0353095D01*
X0144507Y0354162D02*
X0144507Y0347757D01*
X0144507Y0349892D02*
X0147709Y0349892D01*
X0148777Y0350959D01*
X0148777Y0353095D01*
X0147709Y0354162D01*
X0144507Y0354162D01*
X0150952Y0353095D02*
X0150952Y0348824D01*
X0152020Y0347757D01*
X0154155Y0347757D01*
X0155222Y0348824D01*
X0157398Y0347757D02*
X0160600Y0347757D01*
X0161668Y0348824D01*
X0161668Y0349892D01*
X0160600Y0350959D01*
X0157398Y0350959D01*
X0155222Y0353095D02*
X0154155Y0354162D01*
X0152020Y0354162D01*
X0150952Y0353095D01*
X0157398Y0354162D02*
X0160600Y0354162D01*
X0161668Y0353095D01*
X0161668Y0352027D01*
X0160600Y0350959D01*
X0157398Y0347757D02*
X0157398Y0354162D01*
X0157757Y0342351D02*
X0156689Y0341284D01*
X0156689Y0337013D01*
X0157757Y0335946D01*
X0159892Y0335946D01*
X0160959Y0337013D01*
X0160959Y0341284D01*
X0159892Y0342351D01*
X0157757Y0342351D01*
X0154514Y0341284D02*
X0153446Y0342351D01*
X0151311Y0342351D01*
X0150244Y0341284D01*
X0150244Y0337013D01*
X0151311Y0335946D01*
X0153446Y0335946D01*
X0154514Y0337013D01*
X0154514Y0341284D01*
X0163135Y0335946D02*
X0167405Y0342351D01*
X0169580Y0342351D02*
X0171715Y0342351D01*
X0170648Y0342351D02*
X0170648Y0335946D01*
X0171715Y0335946D02*
X0169580Y0335946D01*
X0173877Y0337013D02*
X0174945Y0335946D01*
X0177080Y0335946D01*
X0178147Y0337013D01*
X0178147Y0341284D01*
X0177080Y0342351D01*
X0174945Y0342351D01*
X0173877Y0341284D01*
X0173877Y0337013D01*
X0176012Y0338081D02*
X0178147Y0335946D01*
X0180323Y0337013D02*
X0181390Y0335946D01*
X0183525Y0335946D01*
X0184593Y0337013D01*
X0180323Y0337013D02*
X0180323Y0341284D01*
X0181390Y0342351D01*
X0183525Y0342351D01*
X0184593Y0341284D01*
X0163816Y0330540D02*
X0163816Y0324135D01*
X0138034Y0330540D02*
X0133764Y0324135D01*
X0125143Y0324135D02*
X0123008Y0326270D01*
X0124076Y0326270D02*
X0120873Y0326270D01*
X0120873Y0324135D02*
X0120873Y0330540D01*
X0124076Y0330540D01*
X0125143Y0329473D01*
X0125143Y0327337D01*
X0124076Y0326270D01*
X0118698Y0324135D02*
X0118698Y0330540D01*
X0114428Y0330540D02*
X0114428Y0324135D01*
X0116563Y0326270D01*
X0118698Y0324135D01*
X0112252Y0324135D02*
X0110117Y0326270D01*
X0111185Y0326270D02*
X0107982Y0326270D01*
X0107982Y0324135D02*
X0107982Y0330540D01*
X0111185Y0330540D01*
X0112252Y0329473D01*
X0112252Y0327337D01*
X0111185Y0326270D01*
X0099361Y0330540D02*
X0095091Y0324135D01*
X0086470Y0324135D02*
X0086470Y0328405D01*
X0084335Y0330540D01*
X0082200Y0328405D01*
X0082200Y0324135D01*
X0082200Y0327337D02*
X0086470Y0327337D01*
X0085789Y0335946D02*
X0085789Y0340216D01*
X0087924Y0342351D01*
X0090059Y0340216D01*
X0090059Y0335946D01*
X0092234Y0335946D02*
X0095437Y0335946D01*
X0096504Y0337013D01*
X0096504Y0338081D01*
X0095437Y0339148D01*
X0092234Y0339148D01*
X0090059Y0339148D02*
X0085789Y0339148D01*
X0083613Y0335946D02*
X0079343Y0335946D01*
X0079343Y0342351D01*
X0080025Y0347757D02*
X0075755Y0347757D01*
X0075755Y0354162D01*
X0080025Y0354162D01*
X0082200Y0354162D02*
X0085403Y0354162D01*
X0086470Y0353095D01*
X0086470Y0350959D01*
X0085403Y0349892D01*
X0082200Y0349892D01*
X0084335Y0349892D02*
X0086470Y0347757D01*
X0082200Y0347757D02*
X0082200Y0354162D01*
X0077890Y0350959D02*
X0075755Y0350959D01*
X0073579Y0349892D02*
X0073579Y0348824D01*
X0072512Y0347757D01*
X0070377Y0347757D01*
X0069309Y0348824D01*
X0070377Y0350959D02*
X0072512Y0350959D01*
X0073579Y0349892D01*
X0073579Y0353095D02*
X0072512Y0354162D01*
X0070377Y0354162D01*
X0069309Y0353095D01*
X0069309Y0352027D01*
X0070377Y0350959D01*
X0067134Y0350959D02*
X0062864Y0350959D01*
X0062864Y0352027D02*
X0064999Y0354162D01*
X0067134Y0352027D01*
X0067134Y0347757D01*
X0062864Y0347757D02*
X0062864Y0352027D01*
X0060688Y0347757D02*
X0056418Y0347757D01*
X0056418Y0354162D01*
X0057831Y0342351D02*
X0057831Y0335946D01*
X0053561Y0342351D01*
X0053561Y0335946D01*
X0051386Y0335946D02*
X0047116Y0335946D01*
X0047116Y0342351D01*
X0051386Y0342351D01*
X0049251Y0339148D02*
X0047116Y0339148D01*
X0044940Y0338081D02*
X0044940Y0337013D01*
X0043873Y0335946D01*
X0041738Y0335946D01*
X0040670Y0337013D01*
X0041738Y0339148D02*
X0043873Y0339148D01*
X0044940Y0338081D01*
X0044940Y0341284D02*
X0043873Y0342351D01*
X0041738Y0342351D01*
X0040670Y0341284D01*
X0040670Y0340216D01*
X0041738Y0339148D01*
X0056418Y0330540D02*
X0056418Y0324135D01*
X0056418Y0326270D02*
X0059621Y0326270D01*
X0060688Y0327337D01*
X0060688Y0329473D01*
X0059621Y0330540D01*
X0056418Y0330540D01*
X0058553Y0326270D02*
X0060688Y0324135D01*
X0062864Y0324135D02*
X0067134Y0324135D01*
X0069309Y0326270D02*
X0071444Y0324135D01*
X0073579Y0326270D01*
X0073579Y0330540D01*
X0069309Y0330540D02*
X0069309Y0326270D01*
X0064999Y0327337D02*
X0062864Y0327337D01*
X0062864Y0324135D02*
X0062864Y0330540D01*
X0067134Y0330540D01*
X0067520Y0335946D02*
X0069655Y0335946D01*
X0070722Y0337013D01*
X0070722Y0341284D01*
X0069655Y0342351D01*
X0067520Y0342351D01*
X0066452Y0341284D01*
X0066452Y0337013D01*
X0067520Y0335946D01*
X0064277Y0335946D02*
X0061074Y0339148D01*
X0060007Y0338081D02*
X0064277Y0342351D01*
X0060007Y0342351D02*
X0060007Y0335946D01*
X0092234Y0335946D02*
X0092234Y0342351D01*
X0095437Y0342351D01*
X0096504Y0341284D01*
X0096504Y0340216D01*
X0095437Y0339148D01*
X0095091Y0347757D02*
X0097226Y0349892D01*
X0099361Y0347757D01*
X0095091Y0347757D02*
X0095091Y0354162D01*
X0221114Y0052200D02*
X0222582Y0052200D01*
X0221848Y0052200D02*
X0221848Y0048530D01*
X0221114Y0047796D01*
X0220380Y0047796D01*
X0219646Y0048530D01*
X0224250Y0047796D02*
X0227186Y0050732D01*
X0227186Y0051466D01*
X0226452Y0052200D01*
X0224984Y0052200D01*
X0224250Y0051466D01*
X0224250Y0047796D02*
X0227186Y0047796D01*
X0223186Y0015579D02*
X0223186Y0011309D01*
X0221051Y0009174D01*
X0218915Y0011309D01*
X0218915Y0015579D01*
X0216740Y0015579D02*
X0212470Y0015579D01*
X0212470Y0012377D01*
X0214605Y0013444D01*
X0215673Y0013444D01*
X0216740Y0012377D01*
X0216740Y0010242D01*
X0215673Y0009174D01*
X0213537Y0009174D01*
X0212470Y0010242D01*
X0210295Y0012377D02*
X0206024Y0012377D01*
X0208160Y0014512D02*
X0208160Y0010242D01*
X0237520Y0010242D02*
X0238588Y0009174D01*
X0240723Y0009174D01*
X0241791Y0010242D01*
X0241791Y0012377D01*
X0239656Y0012377D01*
X0241791Y0014512D02*
X0240723Y0015579D01*
X0238588Y0015579D01*
X0237520Y0014512D01*
X0237520Y0010242D01*
X0243966Y0009174D02*
X0243966Y0015579D01*
X0248236Y0009174D01*
X0248236Y0015579D01*
X0250411Y0015579D02*
X0250411Y0009174D01*
X0253614Y0009174D01*
X0254682Y0010242D01*
X0254682Y0014512D01*
X0253614Y0015579D01*
X0250411Y0015579D01*
D11*
X0241157Y0018717D02*
X0217535Y0018717D01*
X0217535Y0046276D01*
X0241157Y0046276D01*
X0241157Y0018717D01*
X0249819Y0062811D02*
X0216748Y0062811D01*
X0216748Y0080921D01*
X0249819Y0080921D01*
X0249819Y0062811D01*
X0212614Y0092535D02*
X0198835Y0092535D01*
X0198835Y0106315D01*
X0200803Y0106315D01*
X0198835Y0104346D01*
X0198835Y0106315D01*
X0212614Y0106315D01*
X0212614Y0092535D01*
X0199677Y0105189D02*
X0198835Y0105189D01*
X0198835Y0105687D02*
X0200176Y0105687D01*
X0200674Y0106186D02*
X0198835Y0106186D01*
X0198835Y0104690D02*
X0199179Y0104690D01*
X0194460Y0115826D02*
X0183209Y0115826D01*
X0183209Y0120426D01*
X0194460Y0120426D01*
X0194460Y0115826D01*
X0194898Y0124031D02*
X0194898Y0137811D01*
X0208677Y0137811D01*
X0208677Y0124031D01*
X0194898Y0124031D01*
X0211298Y0124735D02*
X0211298Y0113485D01*
X0215898Y0113485D01*
X0215898Y0124735D01*
X0211298Y0124735D01*
X0247063Y0202772D02*
X0148638Y0202772D01*
X0148638Y0271669D01*
X0247063Y0271669D01*
X0247063Y0202772D01*
X0141748Y0250016D02*
X0141748Y0263795D01*
X0127969Y0263795D01*
X0127969Y0250016D01*
X0141748Y0250016D01*
X0062355Y0175917D02*
X0062355Y0164666D01*
X0057755Y0164666D01*
X0057755Y0175917D01*
X0062355Y0175917D01*
X0050724Y0182929D02*
X0023165Y0182929D01*
X0023165Y0159307D01*
X0050724Y0159307D01*
X0050724Y0182929D01*
X0050724Y0207732D02*
X0023165Y0207732D01*
X0023165Y0231354D01*
X0050724Y0231354D01*
X0050724Y0207732D01*
X0053165Y0157496D02*
X0053165Y0143717D01*
X0066945Y0143717D01*
X0066945Y0157496D01*
X0053165Y0157496D01*
X0079740Y0046276D02*
X0079740Y0018717D01*
X0103362Y0018717D01*
X0103362Y0046276D01*
X0079740Y0046276D01*
D12*
X0143717Y0271669D03*
D13*
X0066476Y0172240D02*
X0066476Y0170372D01*
X0066476Y0171306D02*
X0063674Y0171306D01*
X0064608Y0170372D01*
X0064141Y0169293D02*
X0065075Y0169293D01*
X0065542Y0168826D01*
X0065542Y0167425D01*
X0065542Y0168359D02*
X0066476Y0169293D01*
X0066476Y0167425D02*
X0063674Y0167425D01*
X0063674Y0168826D01*
X0064141Y0169293D01*
X0175142Y0119428D02*
X0175142Y0116626D01*
X0175142Y0117560D02*
X0176543Y0117560D01*
X0177010Y0118027D01*
X0177010Y0118961D01*
X0176543Y0119428D01*
X0175142Y0119428D01*
X0176076Y0117560D02*
X0177010Y0116626D01*
X0178088Y0116626D02*
X0179956Y0118494D01*
X0179956Y0118961D01*
X0179489Y0119428D01*
X0178555Y0119428D01*
X0178088Y0118961D01*
X0178088Y0116626D02*
X0179956Y0116626D01*
X0217017Y0116951D02*
X0217484Y0116483D01*
X0219353Y0116483D01*
X0219820Y0116951D01*
X0219820Y0117885D01*
X0219353Y0118352D01*
X0219820Y0119430D02*
X0219820Y0121298D01*
X0219820Y0120364D02*
X0217017Y0120364D01*
X0217951Y0119430D01*
X0217484Y0118352D02*
X0217017Y0117885D01*
X0217017Y0116951D01*
D14*
X0221866Y0071866D03*
M02*
