G75*
G70*
%OFA0B0*%
%FSLAX24Y24*%
%IPPOS*%
%LPD*%
%AMOC8*
5,1,8,0,0,1.08239X$1,22.5*
%
%ADD10R,0.0768X0.0768*%
%ADD11C,0.0768*%
%ADD12R,0.0256X0.0118*%
%ADD13R,0.0689X0.1063*%
%ADD14R,0.1102X0.0512*%
%ADD15R,0.0354X0.0315*%
%ADD16R,0.0315X0.0354*%
%ADD17R,0.0300X0.0350*%
%ADD18R,0.0350X0.0300*%
%ADD19R,0.0748X0.0984*%
%ADD20C,0.2540*%
%ADD21C,0.0600*%
%ADD22C,0.0197*%
%ADD23C,0.0394*%
%ADD24C,0.0320*%
%ADD25C,0.0396*%
%ADD26C,0.0098*%
D10*
X008656Y003250D03*
X022435Y003250D03*
X003695Y017613D03*
X003695Y022455D03*
D11*
X003695Y021455D03*
X003695Y016613D03*
X009656Y003250D03*
X023435Y003250D03*
D12*
X021105Y009550D03*
X021105Y009746D03*
X021105Y009943D03*
X021105Y010140D03*
X021105Y010337D03*
X020042Y010337D03*
X020042Y010140D03*
X020042Y009943D03*
X020042Y009746D03*
X020042Y009550D03*
D13*
X020573Y009943D03*
D14*
X023723Y021754D03*
X023723Y022739D03*
X023723Y023723D03*
X023723Y024707D03*
X023723Y025691D03*
X015849Y025691D03*
X015849Y024707D03*
X015849Y023723D03*
X015849Y022739D03*
X015849Y021754D03*
D15*
X013093Y025317D03*
X013093Y026065D03*
X013880Y025691D03*
D16*
X006006Y015455D03*
X005632Y014668D03*
X006380Y014668D03*
X019806Y012699D03*
X020554Y012699D03*
X020180Y013487D03*
D17*
X021361Y012212D03*
X021361Y011612D03*
X006006Y016730D03*
X006006Y017330D03*
D18*
X018584Y011813D03*
X019184Y011813D03*
D19*
X022109Y007187D03*
X024550Y007187D03*
D20*
X001676Y001676D03*
X001676Y037896D03*
X037896Y037896D03*
X037896Y001676D03*
D21*
X022542Y010731D03*
X022542Y011912D03*
X022542Y013093D03*
X018211Y009943D03*
X018211Y008762D03*
X020967Y007975D03*
X014274Y015455D03*
X012699Y010337D03*
D22*
X014274Y014274D02*
X023329Y014274D01*
X023723Y013880D01*
X023723Y010337D01*
X023329Y009943D01*
X021754Y009943D01*
X021754Y009550D02*
X033762Y009550D01*
X034353Y010140D01*
X034353Y028054D01*
X033172Y029235D01*
X014274Y029235D01*
X013093Y028054D01*
X013093Y026065D01*
X013093Y025317D02*
X011931Y025317D01*
X011912Y025298D01*
X013880Y025691D02*
X015849Y025691D01*
X015849Y022739D02*
X014865Y022739D01*
X014581Y022455D01*
X003695Y022455D01*
X003695Y021455D02*
X014369Y021455D01*
X014668Y021754D01*
X015849Y021754D01*
X014274Y014274D02*
X006026Y014274D01*
X005632Y014668D01*
X006380Y014668D02*
X007187Y014668D01*
X006006Y015455D02*
X006006Y016730D01*
X005889Y016613D01*
X003695Y016613D01*
X003695Y017613D02*
X005724Y017613D01*
X006006Y017330D01*
X019786Y012109D02*
X019806Y012128D01*
X019806Y012699D01*
X020554Y012699D02*
X020554Y012030D01*
X020967Y011617D01*
X021356Y011617D01*
X021361Y011612D01*
X021361Y010731D01*
X021361Y012212D02*
X021361Y012699D01*
X023920Y007975D02*
X025691Y007975D01*
X025691Y006400D01*
X023920Y006400D01*
X023920Y007975D01*
X023920Y007917D02*
X025691Y007917D01*
X025691Y007721D02*
X025122Y007721D01*
X025122Y007762D02*
X025006Y007878D01*
X024638Y007878D01*
X024638Y007276D01*
X024461Y007276D01*
X024461Y007099D01*
X023977Y007099D01*
X023977Y006613D01*
X024093Y006497D01*
X024461Y006497D01*
X024461Y007099D01*
X024638Y007099D01*
X024638Y007276D01*
X025122Y007276D01*
X025122Y007762D01*
X025122Y007526D02*
X025691Y007526D01*
X025691Y007330D02*
X025122Y007330D01*
X025122Y007099D02*
X024638Y007099D01*
X024638Y006497D01*
X025006Y006497D01*
X025122Y006613D01*
X025122Y007099D01*
X025122Y006940D02*
X025691Y006940D01*
X025691Y007135D02*
X024638Y007135D01*
X024461Y007135D02*
X023920Y007135D01*
X023977Y007276D02*
X024461Y007276D01*
X024461Y007878D01*
X024093Y007878D01*
X023977Y007762D01*
X023977Y007276D01*
X023977Y007330D02*
X023920Y007330D01*
X023920Y007526D02*
X023977Y007526D01*
X023977Y007721D02*
X023920Y007721D01*
X024461Y007721D02*
X024638Y007721D01*
X024638Y007526D02*
X024461Y007526D01*
X024461Y007330D02*
X024638Y007330D01*
X024638Y006940D02*
X024461Y006940D01*
X024461Y006744D02*
X024638Y006744D01*
X024638Y006549D02*
X024461Y006549D01*
X024041Y006549D02*
X023920Y006549D01*
X023920Y006744D02*
X023977Y006744D01*
X023977Y006940D02*
X023920Y006940D01*
X025058Y006549D02*
X025691Y006549D01*
X025691Y006744D02*
X025122Y006744D01*
D23*
X022491Y006806D02*
X022325Y006971D01*
X022325Y003361D01*
X022435Y003250D01*
X022435Y001569D01*
X021754Y000888D01*
X005219Y000888D01*
X001282Y004825D01*
X001282Y013487D01*
X020180Y013487D01*
X022109Y007187D02*
X022325Y006971D01*
X003695Y017613D02*
X003506Y017424D01*
X001872Y017424D01*
X001282Y016833D01*
X001282Y013487D01*
D24*
X003695Y017613D02*
X003644Y017664D01*
X003644Y018998D01*
X004431Y019786D01*
X020180Y019786D01*
X020967Y020573D01*
X020967Y025298D01*
X021361Y025691D01*
X023723Y025691D01*
D25*
X011912Y025298D03*
X007187Y014668D03*
X019786Y012109D03*
X021361Y012699D03*
X020573Y009943D03*
X020081Y008959D03*
X025298Y007581D03*
X025298Y006794D03*
D26*
X021754Y009550D02*
X021105Y009550D01*
X021105Y008113D01*
X020967Y007975D01*
X020081Y008959D02*
X020081Y009550D01*
X020042Y009550D01*
X020042Y009746D02*
X019589Y009746D01*
X019392Y009550D01*
X019392Y008959D01*
X019195Y008762D01*
X018211Y008762D01*
X018211Y009943D02*
X019195Y009943D01*
X019392Y010140D01*
X020042Y010140D01*
X020042Y010337D02*
X018998Y010337D01*
X018605Y010731D01*
X018605Y011793D01*
X018584Y011813D01*
X018486Y011912D01*
X012699Y011912D01*
X012699Y010337D01*
X012699Y011912D02*
X009156Y011912D01*
X008656Y011412D01*
X008656Y003250D01*
X019184Y011813D02*
X020278Y011813D01*
X020494Y012030D01*
X020554Y012030D01*
X021361Y011612D02*
X021454Y011518D01*
X021951Y011518D01*
X022345Y011912D01*
X022542Y011912D01*
X022542Y010731D02*
X022148Y010731D01*
X021557Y010140D01*
X021105Y010140D01*
X021105Y010337D02*
X021262Y010337D01*
X021361Y010435D01*
X021361Y010731D01*
X021754Y009943D02*
X021557Y009746D01*
X021105Y009746D01*
X014274Y014274D02*
X014274Y015455D01*
M02*
